<svg width="960" height="960" viewBox="0 0 960 960" fill="none" xmlns="http://www.w3.org/2000/svg">
<rect x="120" width="120" height="120" fill="#B88762"/>
<rect x="360" width="120" height="120" fill="#B88762"/>
<rect x="600" width="120" height="120" fill="#B88762"/>
<rect x="840" width="120" height="120" fill="#B88762"/>
<rect width="120" height="120" fill="#EDD6B0"/>
<rect x="240" width="120" height="120" fill="#EDD6B0"/>
<rect x="480" width="120" height="120" fill="#EDD6B0"/>
<rect x="720" width="120" height="120" fill="#EDD6B0"/>
<rect x="120" y="240" width="120" height="120" fill="#B88762"/>
<rect x="360" y="240" width="120" height="120" fill="#B88762"/>
<rect x="600" y="240" width="120" height="120" fill="#B88762"/>
<rect x="840" y="240" width="120" height="120" fill="#B88762"/>
<rect y="240" width="120" height="120" fill="#EDD6B0"/>
<rect x="240" y="240" width="120" height="120" fill="#EDD6B0"/>
<rect x="480" y="240" width="120" height="120" fill="#EDD6B0"/>
<rect x="720" y="240" width="120" height="120" fill="#EDD6B0"/>
<rect x="120" y="480" width="120" height="120" fill="#B88762"/>
<rect x="360" y="480" width="120" height="120" fill="#B88762"/>
<rect x="600" y="480" width="120" height="120" fill="#B88762"/>
<rect x="840" y="480" width="120" height="120" fill="#B88762"/>
<rect y="480" width="120" height="120" fill="#EDD6B0"/>
<rect x="240" y="480" width="120" height="120" fill="#EDD6B0"/>
<rect x="480" y="480" width="120" height="120" fill="#EDD6B0"/>
<rect x="720" y="480" width="120" height="120" fill="#EDD6B0"/>
<rect x="120" y="720" width="120" height="120" fill="#B88762"/>
<rect x="360" y="720" width="120" height="120" fill="#B88762"/>
<rect x="600" y="720" width="120" height="120" fill="#B88762"/>
<rect x="840" y="720" width="120" height="120" fill="#B88762"/>
<rect y="720" width="120" height="120" fill="#EDD6B0"/>
<rect x="240" y="720" width="120" height="120" fill="#EDD6B0"/>
<rect x="480" y="720" width="120" height="120" fill="#EDD6B0"/>
<rect x="720" y="720" width="120" height="120" fill="#EDD6B0"/>
<rect x="240" y="120" width="120" height="120" fill="#B88762"/>
<rect x="480" y="120" width="120" height="120" fill="#B88762"/>
<rect x="720" y="120" width="120" height="120" fill="#B88762"/>
<rect y="120" width="120" height="120" fill="#B88762"/>
<rect x="120" y="120" width="120" height="120" fill="#EDD6B0"/>
<rect x="360" y="120" width="120" height="120" fill="#EDD6B0"/>
<rect x="600" y="120" width="120" height="120" fill="#EDD6B0"/>
<rect x="840" y="120" width="120" height="120" fill="#EDD6B0"/>
<rect x="240" y="360" width="120" height="120" fill="#B88762"/>
<rect x="480" y="360" width="120" height="120" fill="#B88762"/>
<rect x="720" y="360" width="120" height="120" fill="#B88762"/>
<rect y="360" width="120" height="120" fill="#B88762"/>
<rect x="120" y="360" width="120" height="120" fill="#EDD6B0"/>
<rect x="360" y="360" width="120" height="120" fill="#EDD6B0"/>
<rect x="600" y="360" width="120" height="120" fill="#EDD6B0"/>
<rect x="840" y="360" width="120" height="120" fill="#EDD6B0"/>
<rect x="240" y="600" width="120" height="120" fill="#B88762"/>
<rect x="480" y="600" width="120" height="120" fill="#B88762"/>
<rect x="720" y="600" width="120" height="120" fill="#B88762"/>
<rect y="600" width="120" height="120" fill="#B88762"/>
<rect x="120" y="600" width="120" height="120" fill="#EDD6B0"/>
<rect x="360" y="600" width="120" height="120" fill="#EDD6B0"/>
<rect x="600" y="600" width="120" height="120" fill="#EDD6B0"/>
<rect x="840" y="600" width="120" height="120" fill="#EDD6B0"/>
<rect x="240" y="840" width="120" height="120" fill="#B88762"/>
<rect x="480" y="840" width="120" height="120" fill="#B88762"/>
<rect x="720" y="840" width="120" height="120" fill="#B88762"/>
<rect y="840" width="120" height="120" fill="#B88762"/>
<rect x="120" y="840" width="120" height="120" fill="#EDD6B0"/>
<rect x="360" y="840" width="120" height="120" fill="#EDD6B0"/>
<rect x="600" y="840" width="120" height="120" fill="#EDD6B0"/>
<rect x="840" y="840" width="120" height="120" fill="#EDD6B0"/>
<path d="M7.68391 24V21.8H11.4839V11.62L7.66391 14.46V11.82L11.0239 9.4H13.9839V21.8H17.0439V24H7.68391Z" fill="#B88762"/>
<path d="M5.58391 144V141.58L10.1439 137C10.7839 136.347 11.2572 135.76 11.5639 135.24C11.8706 134.707 12.0239 134.16 12.0239 133.6C12.0239 132.92 11.8372 132.393 11.4639 132.02C11.0906 131.633 10.5839 131.44 9.94391 131.44C9.23724 131.44 8.68391 131.647 8.28391 132.06C7.88391 132.46 7.68391 133.02 7.68391 133.74H5.18391C5.19724 132.807 5.39724 132.007 5.78391 131.34C6.18391 130.66 6.74391 130.133 7.46391 129.76C8.18391 129.387 9.02391 129.2 9.98391 129.2C10.9039 129.2 11.7039 129.373 12.3839 129.72C13.0639 130.067 13.5906 130.553 13.9639 131.18C14.3372 131.807 14.5239 132.553 14.5239 133.42C14.5239 134.313 14.2906 135.187 13.8239 136.04C13.3706 136.88 12.6372 137.787 11.6239 138.76L8.58391 141.74H14.7039V144H5.58391Z" fill="#EDD6B0"/>
<path d="M9.86391 264.2C8.91724 264.2 8.09057 264.027 7.38391 263.68C6.69057 263.333 6.15057 262.847 5.76391 262.22C5.37724 261.593 5.18391 260.853 5.18391 260H7.70391C7.70391 260.653 7.89057 261.167 8.26391 261.54C8.65057 261.9 9.19057 262.08 9.88391 262.08C10.5772 262.08 11.1106 261.893 11.4839 261.52C11.8572 261.147 12.0439 260.64 12.0439 260V258.86C12.0439 258.207 11.8572 257.7 11.4839 257.34C11.1106 256.967 10.5772 256.78 9.88391 256.78H8.24391V254.52L11.4639 251.54H5.84391V249.4H14.0039V251.66L9.88391 255.44V254.64C11.3239 254.64 12.4639 255.02 13.3039 255.78C14.1439 256.54 14.5639 257.567 14.5639 258.86V260C14.5639 260.853 14.3706 261.593 13.9839 262.22C13.5972 262.847 13.0506 263.333 12.3439 263.68C11.6372 264.027 10.8106 264.2 9.86391 264.2Z" fill="#B88762"/>
<path d="M11.8039 384V381.1H5.30391V377.48L10.9239 369.4H13.7239L7.70391 378.14V378.9H11.8039V375.6H14.3039V384H11.8039Z" fill="#EDD6B0"/>
<path d="M9.98391 504.2C8.63724 504.2 7.55724 503.867 6.74391 503.2C5.93057 502.52 5.48391 501.6 5.40391 500.44H7.90391C7.95724 500.947 8.15724 501.34 8.50391 501.62C8.86391 501.887 9.35724 502.02 9.98391 502.02C10.6772 502.02 11.2039 501.84 11.5639 501.48C11.9239 501.107 12.1039 500.593 12.1039 499.94V498.52C12.1039 497.853 11.9239 497.347 11.5639 497C11.2039 496.64 10.6772 496.46 9.98391 496.46C9.55724 496.46 9.19057 496.547 8.88391 496.72C8.57724 496.893 8.34391 497.133 8.18391 497.44H5.74391L5.84391 489.4H14.0639V491.66H8.20391L8.16391 495.9H8.74391L8.14391 496.4C8.14391 495.787 8.38391 495.307 8.86391 494.96C9.35724 494.6 10.0172 494.42 10.8439 494.42C12.0306 494.407 12.9506 494.767 13.6039 495.5C14.2706 496.22 14.6039 497.227 14.6039 498.52V499.94C14.6039 501.26 14.1906 502.3 13.3639 503.06C12.5506 503.82 11.4239 504.2 9.98391 504.2Z" fill="#B88762"/>
<path d="M10.0039 624.2C9.03057 624.2 8.17057 624 7.42391 623.6C6.69057 623.187 6.11724 622.613 5.70391 621.88C5.30391 621.133 5.10391 620.273 5.10391 619.3C5.10391 618.607 5.21724 617.88 5.44391 617.12C5.68391 616.36 6.01057 615.647 6.42391 614.98L9.86391 609.4H12.6439L8.32391 616.2L8.44391 616.28C8.71057 615.867 9.07057 615.553 9.52391 615.34C9.97724 615.127 10.4839 615.02 11.0439 615.02C11.8306 615.02 12.5106 615.207 13.0839 615.58C13.6572 615.953 14.1039 616.473 14.4239 617.14C14.7439 617.807 14.9039 618.587 14.9039 619.48C14.9039 620.427 14.6972 621.253 14.2839 621.96C13.8839 622.667 13.3172 623.22 12.5839 623.62C11.8639 624.007 11.0039 624.2 10.0039 624.2ZM10.0039 622.08C10.7372 622.08 11.3306 621.847 11.7839 621.38C12.2372 620.9 12.4639 620.28 12.4639 619.52C12.4639 618.733 12.2372 618.107 11.7839 617.64C11.3306 617.16 10.7372 616.92 10.0039 616.92C9.27057 616.92 8.67724 617.16 8.22391 617.64C7.77057 618.107 7.54391 618.733 7.54391 619.52C7.54391 620.28 7.77057 620.9 8.22391 621.38C8.67724 621.847 9.27057 622.08 10.0039 622.08Z" fill="#EDD6B0"/>
<path d="M7.10391 744L12.3839 731.72H7.70391V733.84H5.20391V729.4H14.8839V731.76L9.78391 744H7.10391Z" fill="#B88762"/>
<path d="M10.0039 864.2C9.04391 864.2 8.21057 864.04 7.50391 863.72C6.79724 863.387 6.25057 862.92 5.86391 862.32C5.47724 861.72 5.28391 861.02 5.28391 860.22C5.28391 859.34 5.53057 858.587 6.02391 857.96C6.51724 857.333 7.25057 856.8 8.22391 856.36L10.4639 855.34C10.9439 855.113 11.3172 854.807 11.5839 854.42C11.8639 854.033 12.0039 853.6 12.0039 853.12C12.0039 852.573 11.8239 852.14 11.4639 851.82C11.1039 851.487 10.6172 851.32 10.0039 851.32C9.39057 851.32 8.89724 851.487 8.52391 851.82C8.16391 852.153 7.98391 852.593 7.98391 853.14C7.98391 853.607 8.12391 854.033 8.40391 854.42C8.68391 854.807 9.05724 855.107 9.52391 855.32L11.7439 856.34C12.7972 856.807 13.5572 857.36 14.0239 858C14.4906 858.627 14.7239 859.367 14.7239 860.22C14.7239 861.447 14.2972 862.42 13.4439 863.14C12.6039 863.847 11.4572 864.2 10.0039 864.2ZM10.0039 862.06C10.6972 862.06 11.2439 861.88 11.6439 861.52C12.0572 861.147 12.2639 860.66 12.2639 860.06C12.2639 859.593 12.1239 859.153 11.8439 858.74C11.5639 858.313 11.1772 857.987 10.6839 857.76L8.30391 856.66C7.39724 856.233 6.70391 855.727 6.22391 855.14C5.75724 854.54 5.52391 853.827 5.52391 853C5.52391 852.253 5.70391 851.593 6.06391 851.02C6.42391 850.447 6.93724 850 7.60391 849.68C8.28391 849.36 9.08391 849.2 10.0039 849.2C10.9239 849.2 11.7106 849.36 12.3639 849.68C13.0306 850 13.5439 850.447 13.9039 851.02C14.2772 851.593 14.4639 852.253 14.4639 853C14.4639 853.84 14.2306 854.553 13.7639 855.14C13.2972 855.727 12.6106 856.233 11.7039 856.66L9.30391 857.78C8.82391 857.993 8.44391 858.307 8.16391 858.72C7.88391 859.133 7.74391 859.573 7.74391 860.04C7.74391 860.64 7.94391 861.127 8.34391 861.5C8.75724 861.873 9.31057 862.06 10.0039 862.06Z" fill="#EDD6B0"/>
<path d="M100.544 952V937.4H103.044V941L102.984 943.1H103.664L102.984 943.68C102.984 942.773 103.244 942.067 103.764 941.56C104.297 941.053 105.024 940.8 105.944 940.8C107.024 940.8 107.884 941.16 108.524 941.88C109.177 942.6 109.504 943.567 109.504 944.78V952H107.004V945.04C107.004 944.373 106.831 943.86 106.484 943.5C106.137 943.14 105.651 942.96 105.024 942.96C104.411 942.96 103.924 943.147 103.564 943.52C103.217 943.893 103.044 944.427 103.044 945.12V952H100.544Z" fill="#EDD6B0"/>
<path d="M222.044 955.6V953.52H225.304C225.864 953.52 226.284 953.38 226.564 953.1C226.844 952.833 226.984 952.447 226.984 951.94V951.12L227.024 949.06H226.484L227.024 948.52C227.024 949.413 226.757 950.113 226.224 950.62C225.704 951.113 224.997 951.36 224.104 951.36C222.984 951.36 222.091 950.98 221.424 950.22C220.771 949.46 220.444 948.433 220.444 947.14V945C220.444 943.72 220.771 942.7 221.424 941.94C222.091 941.18 222.984 940.8 224.104 940.8C224.997 940.8 225.704 941.053 226.224 941.56C226.757 942.053 227.024 942.747 227.024 943.64L226.484 943.1H227.024L226.964 941H229.464V952C229.464 953.107 229.097 953.98 228.364 954.62C227.631 955.273 226.624 955.6 225.344 955.6H222.044ZM224.944 949.2C225.584 949.2 226.077 949.013 226.424 948.64C226.784 948.253 226.964 947.72 226.964 947.04V945.12C226.964 944.44 226.784 943.913 226.424 943.54C226.077 943.153 225.584 942.96 224.944 942.96C224.304 942.96 223.811 943.147 223.464 943.52C223.117 943.893 222.944 944.427 222.944 945.12V947.04C222.944 947.733 223.117 948.267 223.464 948.64C223.811 949.013 224.304 949.2 224.944 949.2Z" fill="#B88762"/>
<path d="M343.104 952V944.48H340.084V942.22H343.104V940.56C343.104 939.6 343.424 938.833 344.064 938.26C344.704 937.687 345.551 937.4 346.604 937.4H349.824V939.6H346.664C346.344 939.6 346.084 939.693 345.884 939.88C345.697 940.053 345.604 940.293 345.604 940.6V942.22H349.824V944.48H345.604V952H343.104Z" fill="#EDD6B0"/>
<path d="M465.024 952.2C464.091 952.2 463.277 952.02 462.584 951.66C461.891 951.3 461.351 950.8 460.964 950.16C460.591 949.507 460.404 948.747 460.404 947.88V945.12C460.404 944.253 460.591 943.5 460.964 942.86C461.351 942.207 461.891 941.7 462.584 941.34C463.277 940.98 464.091 940.8 465.024 940.8C465.944 940.8 466.744 940.98 467.424 941.34C468.117 941.7 468.651 942.207 469.024 942.86C469.411 943.5 469.604 944.253 469.604 945.12V947.1H462.824V947.88C462.824 948.653 463.011 949.24 463.384 949.64C463.757 950.027 464.311 950.22 465.044 950.22C465.604 950.22 466.057 950.127 466.404 949.94C466.751 949.74 466.971 949.453 467.064 949.08H469.524C469.337 950.027 468.831 950.787 468.004 951.36C467.191 951.92 466.197 952.2 465.024 952.2ZM467.184 945.7V945.1C467.184 944.34 467.004 943.76 466.644 943.36C466.284 942.947 465.744 942.74 465.024 942.74C464.304 942.74 463.757 942.947 463.384 943.36C463.011 943.773 462.824 944.36 462.824 945.12V945.54L467.364 945.5L467.184 945.7Z" fill="#B88762"/>
<path d="M584.064 952.2C582.971 952.2 582.084 951.82 581.404 951.06C580.737 950.3 580.404 949.28 580.404 948V945.02C580.404 943.727 580.737 942.7 581.404 941.94C582.071 941.18 582.957 940.8 584.064 940.8C584.971 940.8 585.691 941.06 586.224 941.58C586.757 942.087 587.024 942.787 587.024 943.68L586.464 943.1H587.044L586.964 940.48V937.4H589.464V952H587.024V949.9H586.464L587.024 949.32C587.024 950.213 586.757 950.92 586.224 951.44C585.691 951.947 584.971 952.2 584.064 952.2ZM584.944 950.04C585.584 950.04 586.077 949.853 586.424 949.48C586.784 949.093 586.964 948.56 586.964 947.88V945.12C586.964 944.44 586.784 943.913 586.424 943.54C586.077 943.153 585.584 942.96 584.944 942.96C584.304 942.96 583.804 943.147 583.444 943.52C583.084 943.893 582.904 944.427 582.904 945.12V947.88C582.904 948.573 583.084 949.107 583.444 949.48C583.804 949.853 584.304 950.04 584.944 950.04Z" fill="#EDD6B0"/>
<path d="M705.064 952.2C704.131 952.2 703.311 952.027 702.604 951.68C701.911 951.32 701.371 950.82 700.984 950.18C700.597 949.527 700.404 948.76 700.404 947.88V945.12C700.404 944.227 700.597 943.46 700.984 942.82C701.371 942.18 701.911 941.687 702.604 941.34C703.311 940.98 704.131 940.8 705.064 940.8C706.451 940.8 707.557 941.16 708.384 941.88C709.211 942.587 709.644 943.553 709.684 944.78H707.184C707.144 944.207 706.937 943.767 706.564 943.46C706.204 943.14 705.704 942.98 705.064 942.98C704.397 942.98 703.871 943.167 703.484 943.54C703.097 943.9 702.904 944.42 702.904 945.1V947.88C702.904 948.56 703.097 949.087 703.484 949.46C703.871 949.833 704.397 950.02 705.064 950.02C705.704 950.02 706.204 949.867 706.564 949.56C706.937 949.24 707.144 948.793 707.184 948.22H709.684C709.644 949.447 709.211 950.42 708.384 951.14C707.557 951.847 706.451 952.2 705.064 952.2Z" fill="#B88762"/>
<path d="M825.944 952.2C825.037 952.2 824.317 951.947 823.784 951.44C823.251 950.92 822.984 950.213 822.984 949.32L823.544 949.9H822.984V952H820.544V937.4H823.044V940.48L822.964 943.1H823.544L822.984 943.68C822.984 942.787 823.251 942.087 823.784 941.58C824.317 941.06 825.037 940.8 825.944 940.8C827.051 940.8 827.937 941.18 828.604 941.94C829.271 942.7 829.604 943.727 829.604 945.02V948C829.604 949.28 829.271 950.3 828.604 951.06C827.937 951.82 827.051 952.2 825.944 952.2ZM825.064 950.04C825.704 950.04 826.204 949.853 826.564 949.48C826.924 949.107 827.104 948.573 827.104 947.88V945.12C827.104 944.427 826.924 943.893 826.564 943.52C826.204 943.147 825.704 942.96 825.064 942.96C824.437 942.96 823.944 943.153 823.584 943.54C823.224 943.913 823.044 944.44 823.044 945.12V947.88C823.044 948.56 823.224 949.093 823.584 949.48C823.944 949.853 824.437 950.04 825.064 950.04Z" fill="#EDD6B0"/>
<path d="M943.784 952.2C942.651 952.2 941.757 951.9 941.104 951.3C940.451 950.7 940.124 949.893 940.124 948.88C940.124 947.8 940.484 946.967 941.204 946.38C941.924 945.793 942.944 945.5 944.264 945.5H947.004V944.56C947.004 944.027 946.831 943.613 946.484 943.32C946.137 943.013 945.664 942.86 945.064 942.86C944.517 942.86 944.064 942.98 943.704 943.22C943.344 943.46 943.131 943.787 943.064 944.2H940.624C940.744 943.16 941.211 942.333 942.024 941.72C942.837 941.107 943.877 940.8 945.144 940.8C946.491 940.8 947.551 941.14 948.324 941.82C949.111 942.487 949.504 943.393 949.504 944.54V952H947.084V950.08H946.684L947.084 949.54C947.084 950.353 946.784 951 946.184 951.48C945.584 951.96 944.784 952.2 943.784 952.2ZM944.604 950.32C945.311 950.32 945.884 950.14 946.324 949.78C946.777 949.42 947.004 948.953 947.004 948.38V947.04H944.304C943.797 947.04 943.391 947.187 943.084 947.48C942.777 947.773 942.624 948.16 942.624 948.64C942.624 949.16 942.797 949.573 943.144 949.88C943.504 950.173 943.991 950.32 944.604 950.32Z" fill="#B88762"/>
</svg>
