<svg xmlns="http://www.w3.org/2000/svg" class="" width="100%" height="100%" viewBox="0 0 18 19">
  <g id="draw_white">
    <path class="icon-shadow" opacity="0.3" d="M9,.5a9,9,0,1,0,9,9A9,9,0,0,0,9,.5Z"></path>
    <circle class="icon-background" fill="#f8f8f8" cx="9" cy="9" r="8.5"></circle>
    <path class="icon-component-shadow" fill="#e8e8e8"
      d="M9,1A8,8,0,1,1,1,9,8,8,0,0,1,9,1M9,0a9,9,0,1,0,9,9A9,9,0,0,0,9,0Z"></path>
    <path
      d="M2.92,6.61V5.44c.81,0,1.75-.28,1.8-1.22H6.14v5.5H4.34V6.61Zm8.87-2.39L7,13.48H5l4.8-9.26ZM9.85,13.48c-.08-1.54,1.38-2.19,2.57-2.89.33-.17.78-.4.78-.78a.66.66,0,0,0-.68-.7c-.69,0-.94.58-.92,1.16H10a2.17,2.17,0,0,1,.64-1.79,2.74,2.74,0,0,1,1.91-.62C14.1,7.86,15,8.38,15,9.6c0,1.82-2.66,2.18-2.66,2.5h2.73v1.38Z"></path>
  </g>
</svg>